<?xml version="1.0" standalone="no"?><!DOCTYPE svg PUBLIC "-//W3C//DTD SVG 1.1//EN" "http://www.w3.org/Graphics/SVG/1.1/DTD/svg11.dtd"><svg t="1601302245360" class="icon" viewBox="0 0 1024 1024" version="1.1" xmlns="http://www.w3.org/2000/svg" p-id="4435" data-spm-anchor-id="a313x.7781069.0.i4" xmlns:xlink="http://www.w3.org/1999/xlink" width="48" height="48"><defs><style type="text/css"></style></defs><path d="M673.6 571.9c-64.6 35.3-129 70.9-193.1 106.9-64.2 36-95.4 17.2-93.6-56.3 1.7-73.6 3-147.1 3.9-220.7 0.9-73.6 32.8-91.2 95.6-52.9 62.9 38.3 125.9 76.2 189.2 113.8 63.2 37.5 62.5 74-2 109.2z" p-id="4436" fill="#ffffff"></path><path d="M512 1002c-270.6 0-490-219.4-490-490S241.4 22 512 22s490 219.4 490 490-219.4 490-490 490z m0-950.6C257.6 51.4 51.4 257.6 51.4 512c0 254.4 206.2 460.6 460.6 460.6 254.4 0 460.6-206.2 460.6-460.6 0-254.4-206.2-460.6-460.6-460.6z" p-id="4437" fill="#ffffff"></path></svg>