<?xml version="1.0" standalone="no"?><!DOCTYPE svg PUBLIC "-//W3C//DTD SVG 1.1//EN" "http://www.w3.org/Graphics/SVG/1.1/DTD/svg11.dtd"><svg t="1601466574674" class="icon" viewBox="0 0 1024 1024" version="1.1" xmlns="http://www.w3.org/2000/svg" p-id="6918" xmlns:xlink="http://www.w3.org/1999/xlink" width="48" height="48"><defs><style type="text/css"></style></defs><path d="M512 141.21142578C308.06628417 141.21142578 141.21142578 308.06628417 141.21142578 512s166.8548584 370.78857422 370.78857422 370.78857422 370.78857422-166.8548584 370.78857422-370.78857422S715.93371583 141.21142578 512 141.21142578z m0 710.67810035C325.06076073 851.88952613 172.11047387 698.93923927 172.11047387 512S325.06076073 172.11047387 512 172.11047387s339.88952613 152.95028687 339.88952613 339.88952613-152.95028687 339.88952613-339.88952613 339.88952613z" fill="#f11d02" p-id="6919"></path><path d="M627.87142945 461.01657104l-123.59619165-81.88247704c-41.7137146-27.80914307-77.24761987-9.26971435-77.24761916 41.7137146v185.39428711c0 50.98342896 33.9889524 69.52285766 77.24761916 41.7137146l123.59619165-81.88247633c41.7137146-30.89904809 41.7137146-77.24761987 0-105.05676294z" fill="#f11d02" p-id="6920"></path></svg>