<?xml version="1.0" standalone="no"?><!DOCTYPE svg PUBLIC "-//W3C//DTD SVG 1.1//EN" "http://www.w3.org/Graphics/SVG/1.1/DTD/svg11.dtd"><svg t="1601466634532" class="icon" viewBox="0 0 1024 1024" version="1.1" xmlns="http://www.w3.org/2000/svg" p-id="10051" xmlns:xlink="http://www.w3.org/1999/xlink" width="48" height="48"><defs><style type="text/css"></style></defs><path d="M555.509266 113.86373a53.383886 53.383886 0 0 0-18.497656-3.313231c-15.533507 0-30.265465 6.744444-40.464232 18.515902L292.006452 309.830881H188.172422C131.217446 309.830881 84.880866 356.167461 84.880866 413.122436v199.279165c0 56.952542 46.336581 103.286691 103.291556 103.286691h103.83403l204.540926 180.76448c10.197551 11.770241 24.930725 18.515901 40.464232 18.515901 6.403877 0 12.633822-1.116573 18.511035-3.318096 20.909601-7.789255 34.959208-27.944743 34.959209-50.152148V164.003715c-0.107035-22.343632-14.162724-42.494255-34.972588-50.139985zM142.000043 413.022699c0-25.45982 20.712559-46.172379 46.172379-46.172379h129.539545L533.261723 172.134754v681.051406L317.711967 658.470594H188.172422c-25.45982 0-46.172379-20.710126-46.172379-46.167514V413.022699zM716.721548 310.380653v-0.114333l-1.0813-1.070354c-5.402853-5.349335-12.543815-8.29524-20.10562-8.29524-7.614106 0-14.791557 2.983611-20.210222 8.403492-5.4138 5.4138-8.394978 12.5949-8.394978 20.218736 0 7.625053 2.981178 14.80372 8.394978 20.215088 0.19461 0.19461 0.385571 0.347865 0.561935 0.469496 36.603661 36.950309 56.756716 85.816817 56.756717 137.643825 0 51.655508-20.038722 100.410115-56.418582 137.305691a4.687662 4.687662 0 0 0-0.90007 0.706676c-5.4138 5.411367-8.394978 12.592467-8.394978 20.217521s2.981178 14.806153 8.394978 20.216303a28.259768 28.259768 0 0 0 20.114133 8.330514c6.305356 0 12.302985-2.038537 17.230261-5.800587l0.378273 0.386787 2.611419-2.622366c47.721959-47.928732 74.004005-111.406782 74.004005-178.740539-0.001216-66.805877-25.890394-129.766996-72.940949-177.47071z" p-id="10052" fill="#d81e06"></path><path d="M827.145551 200.613458a5.378527 5.378527 0 0 0-0.988861-1.409705c-5.410151-5.412584-12.591251-8.392545-20.216303-8.392545s-14.806153 2.979962-20.216304 8.391329c-11.14749 11.14749-11.14749 29.285118 0 40.433824l0.036489 0.037706c62.064697 68.464925 96.241818 156.630439 96.241818 248.274601 0 91.816879-34.291454 180.135647-96.555626 248.690579-10.828816 11.115865-10.710834 29.067398 0.276102 40.055552 5.411367 5.4138 12.592467 8.394978 20.217521 8.394978s14.806153-2.981178 20.20414-8.382815c0.673836-0.667755 1.052109-1.373215 1.301453-1.840279 0.034057-0.064464 0.068113-0.127713 0.076627-0.153255 71.969117-79.270632 111.598959-181.136671 111.59896-286.865714-0.001216-106.025823-39.763637-208.020791-111.976016-287.234256z" p-id="10053" fill="#d81e06"></path></svg>