<?xml version="1.0" standalone="no"?><!DOCTYPE svg PUBLIC "-//W3C//DTD SVG 1.1//EN" "http://www.w3.org/Graphics/SVG/1.1/DTD/svg11.dtd"><svg t="1602074885064" class="icon" viewBox="0 0 1024 1024" version="1.1" xmlns="http://www.w3.org/2000/svg" p-id="5117" xmlns:xlink="http://www.w3.org/1999/xlink" width="48" height="48"><defs><style type="text/css"></style></defs><path d="M511.997953 83.804684c-239.917208 0-435.104679 171.379229-435.104679 382.033973 0 210.652697 195.186448 382.031926 435.104679 382.031927 26.176173 0 52.360532-2.053776 77.931931-6.110162l174.358073 96.272648a17.355273 17.355273 0 0 0 17.19973-0.245594 17.344017 17.344017 0 0 0 8.528234-14.936177V759.771083c99.958596-72.891124 157.090804-179.541119 157.090805-293.932426 0-210.654744-195.187471-382.033973-435.108773-382.033973z m251.083526 652.580783a17.347087 17.347087 0 0 0-7.752568 14.45113v142.627394L601.421612 808.483528a17.33276 17.33276 0 0 0-11.483542-1.877767c-25.494651 4.363378-51.716872 6.577812-77.940117 6.577813-220.791615 0-400.417669-155.818835-400.417668-347.344917 0-191.528128 179.626054-347.346963 400.417668-347.346962s400.421762 155.818835 400.421762 347.346962c0 105.569384-54.431703 204.161866-149.338236 270.54681z" p-id="5118" fill="#1296db"></path><path d="M325.555657 455.273021m-43.358507 0a43.358507 43.358507 0 1 0 86.717014 0 43.358507 43.358507 0 1 0-86.717014 0Z" p-id="5119" fill="#1296db"></path><path d="M511.998977 455.273021m-43.358507 0a43.358507 43.358507 0 1 0 86.717014 0 43.358507 43.358507 0 1 0-86.717014 0Z" p-id="5120" fill="#1296db"></path><path d="M698.442296 455.273021m-43.358507 0a43.358507 43.358507 0 1 0 86.717014 0 43.358507 43.358507 0 1 0-86.717014 0Z" p-id="5121" fill="#1296db"></path></svg>