<?xml version="1.0" standalone="no"?><!DOCTYPE svg PUBLIC "-//W3C//DTD SVG 1.1//EN" "http://www.w3.org/Graphics/SVG/1.1/DTD/svg11.dtd"><svg t="1602224820273" class="icon" viewBox="0 0 1024 1024" version="1.1" xmlns="http://www.w3.org/2000/svg" p-id="3260" xmlns:xlink="http://www.w3.org/1999/xlink" width="48" height="48"><defs><style type="text/css"></style></defs><path d="M106.666667 362.666667v0z" p-id="3261" fill="#bfbfbf"></path><path d="M883.2 324.266667c-29.866667-8.533333-128 4.266667-238.933333 0 4.266667 0 0-81.066667 0-89.6-8.533333-51.2-34.133333-93.866667-72.533334-128-17.066667-12.8-38.4-25.6-64-25.6-42.666667 0-102.4 25.6-102.4 68.266666 0 51.2 8.533333 149.333333-76.8 196.266667-4.266667 4.266667-12.8 4.266667-12.8 4.266667 0-12.8-17.066667-29.866667-46.933333-29.866667h-102.4c-42.666667 0-68.266667 51.2-68.266667 93.866667v413.866666c0 42.666667 34.133333 76.8 76.8 76.8h162.133334s-4.266667 0 0 0h388.266666c42.666667 0 72.533333 0 89.6-34.133333 17.066667-29.866667 110.933333-204.8 110.933334-430.933333-4.266667-29.866667 4.266667-98.133333-42.666667-115.2z m-614.4 490.666666c0 12.8-8.533333 25.6-21.333333 25.6h-55.466667c-12.8 0-25.6-12.8-25.6-25.6v-371.2-25.6c0-12.8 12.8-21.333333 25.6-21.333333h55.466667c17.066667 0 21.333333 12.8 21.333333 34.133333v413.866667-29.866667z m580.266667-354.133333c-4.266667 251.733333-102.4 375.466667-102.4 375.466667-8.533333 12.8 25.6 0 0 0h-409.6v-413.866667c-4.266667 4.266667 0 0 0 0 115.2-46.933333 136.533333-153.6 136.533333-238.933333 0-12.8 17.066667-34.133333 34.133333-34.133334 25.6 0 68.266667 34.133333 68.266667 102.4 0 59.733333 4.266667 85.333333 0 136.533334 256 0 238.933333-4.266667 260.266667 8.533333 12.8 8.533333 12.8 21.333333 12.8 25.6v38.4z" p-id="3262" fill="#bfbfbf"></path></svg>